<svg width="32" height="32" viewBox="0 0 32 32" fill="none" xmlns="http://www.w3.org/2000/svg">
<path d="M16 2.88294C11.7278 2.88294 11.2218 2.8992 9.53469 2.97618C7.97471 3.04737 7.12752 3.30803 6.56366 3.52708C5.81688 3.81733 5.28383 4.16411 4.72397 4.72397C4.16411 5.28383 3.81733 5.81688 3.52715 6.56366C3.30803 7.12752 3.04737 7.97471 2.97618 9.53463C2.8992 11.2218 2.88294 11.7278 2.88294 16C2.88294 20.2722 2.8992 20.7782 2.97618 22.4654C3.04737 24.0254 3.30803 24.8725 3.52715 25.4364C3.81733 26.1832 4.16411 26.7162 4.72397 27.2761C5.28383 27.836 5.81688 28.1827 6.56366 28.4729C7.12752 28.692 7.97471 28.9527 9.53469 29.0239C11.2216 29.1009 11.7276 29.1171 16 29.1171C20.2725 29.1171 20.7785 29.1009 22.4654 29.0239C24.0254 28.9527 24.8725 28.692 25.4363 28.4729C26.1832 28.1827 26.7162 27.836 27.2761 27.2761C27.836 26.7162 28.1827 26.1832 28.4729 25.4364C28.692 24.8725 28.9527 24.0254 29.0239 22.4654C29.1009 20.7782 29.1171 20.2722 29.1171 16C29.1171 11.7278 29.1009 11.2218 29.0239 9.53469C28.9527 7.97471 28.692 7.12752 28.4729 6.56366C28.1827 5.81688 27.836 5.28383 27.2761 4.72397C26.7162 4.16411 26.1832 3.81733 25.4363 3.52708C24.8725 3.30803 24.0254 3.04737 22.4654 2.97618C20.7782 2.8992 20.2722 2.88294 16 2.88294ZM16 0C20.3454 0 20.8902 0.0184185 22.5968 0.0962843C24.2999 0.174023 25.4629 0.444458 26.4807 0.840011C27.5328 1.2489 28.4251 1.796 29.3146 2.68548C30.2041 3.57497 30.7512 4.46725 31.1601 5.51939C31.5556 6.53717 31.826 7.70021 31.9038 9.40328C31.9816 11.1098 32 11.6547 32 16C32 20.3454 31.9816 20.8903 31.9038 22.5968C31.826 24.2999 31.5556 25.4629 31.1601 26.4807C30.7512 27.5327 30.2041 28.4251 29.3146 29.3146C28.4251 30.2041 27.5328 30.7512 26.4807 31.1601C25.4629 31.5556 24.2999 31.826 22.5968 31.9038C20.8902 31.9816 20.3454 32 16 32C11.6547 32 11.1098 31.9816 9.40328 31.9038C7.70021 31.826 6.53717 31.5556 5.51939 31.1601C4.46725 30.7512 3.57497 30.2041 2.68548 29.3146C1.79599 28.4251 1.2489 27.5328 0.840012 26.4807C0.444458 25.4629 0.174024 24.2999 0.0962849 22.5968C0.018419 20.8903 0 20.3454 0 16C0 11.6547 0.018419 11.1098 0.0962849 9.40328C0.174024 7.70021 0.444458 6.53717 0.840012 5.51939C1.2489 4.46725 1.79599 3.57497 2.68548 2.68548C3.57497 1.796 4.46725 1.2489 5.51939 0.840011C6.53717 0.444458 7.70021 0.174023 9.40328 0.0962843C11.1098 0.0184185 11.6547 0 16 0ZM16 7.78379C20.5377 7.78379 24.2163 11.4623 24.2163 16C24.2163 20.5377 20.5377 24.2163 16 24.2163C11.4623 24.2163 7.78379 20.5377 7.78379 16C7.78379 11.4623 11.4623 7.78379 16 7.78379ZM16 21.3334C18.9455 21.3334 21.3334 18.9455 21.3334 16C21.3334 13.0545 18.9455 10.6667 16 10.6667C13.0545 10.6667 10.6667 13.0545 10.6667 16C10.6667 18.9455 13.0545 21.3334 16 21.3334ZM5.53921 7.45918C5.53921 8.51958 6.39878 9.37921 7.45918 9.37921C8.51958 9.37921 9.37921 8.51958 9.37921 7.45918C9.37921 6.39878 8.51958 5.53921 7.45918 5.53921C6.39878 5.53921 5.53921 6.39878 5.53921 7.45918Z" fill="#FBFFFE"/>
</svg>
