<svg width="24" height="24" viewBox="0 0 24 24" fill="none" xmlns="http://www.w3.org/2000/svg">
<path fill-rule="evenodd" clip-rule="evenodd" d="M12.0911 3.41113L12.0897 0.196533C12.0897 0.196533 11.9119 0.196533 11.8123 0.207808L11.7621 0.213262C11.6893 0.220985 11.6339 0.226854 11.5662 0.246464C11.4837 0.270333 11.4134 0.293633 11.414 0.397869C11.4145 0.502104 11.4263 0.542436 11.4604 0.608864C11.4946 0.675291 11.6843 0.960002 11.6843 0.960002C11.6843 0.960002 11.81 1.18015 11.845 1.3063C11.8522 1.33216 11.8592 1.35618 11.8659 1.37889C11.8917 1.46699 11.9119 1.53562 11.9119 1.61717V1.82173C11.9119 1.86247 11.8839 1.89589 11.845 1.91862C11.8061 1.94135 11.5624 1.73659 11.5624 1.73659C11.5624 1.73659 11.1977 1.49905 11.1053 1.4561L11.0988 1.45311C11.0118 1.41262 10.9904 1.40267 10.9317 1.4561C10.8716 1.51082 10.862 1.7573 10.862 1.7573V2.18575C10.862 2.31523 10.8713 2.4748 10.9015 2.57854C10.9081 2.60139 10.9124 2.62137 10.9162 2.63869L10.9162 2.63872C10.9294 2.70001 10.9354 2.72813 11.0134 2.73333C11.0849 2.7381 11.1084 2.72276 11.1493 2.69606C11.1655 2.68542 11.1846 2.67298 11.2105 2.65929C11.3016 2.61125 11.5624 2.50245 11.5624 2.50245C11.5624 2.50245 11.8042 2.42312 11.845 2.46278C11.8859 2.50245 11.9119 2.53576 11.9119 2.77526C11.9119 3.01477 11.9119 3.05967 11.9019 3.17955C11.8931 3.2865 11.8434 3.41541 11.8328 3.44199C11.2796 3.57629 10.8648 4.13309 10.8648 4.79956C10.8648 5.56637 11.4138 6.18799 12.0911 6.18799C12.7683 6.18799 13.3174 5.56637 13.3174 4.79956C13.3174 4.13311 12.9026 3.57633 12.3495 3.44201C12.3389 3.41546 12.2892 3.28651 12.2803 3.17955C12.2704 3.05967 12.2703 3.01477 12.2704 2.77526C12.2704 2.53576 12.2963 2.50245 12.3372 2.46278C12.3781 2.42312 12.6198 2.50245 12.6198 2.50245C12.6198 2.50245 12.8806 2.61125 12.9717 2.65929C12.9977 2.67298 13.0167 2.68543 13.033 2.69607C13.0739 2.72276 13.0973 2.7381 13.1688 2.73333C13.2468 2.72813 13.2528 2.70001 13.2661 2.6387L13.2661 2.63868C13.2698 2.62136 13.2741 2.60139 13.2808 2.57854C13.311 2.4748 13.3202 2.31523 13.3202 2.18575V1.7573C13.3202 1.7573 13.3107 1.51082 13.2505 1.4561C13.1918 1.40267 13.1704 1.41262 13.0834 1.4531L13.077 1.4561C12.9845 1.49905 12.6198 1.73659 12.6198 1.73659C12.6198 1.73659 12.3761 1.94135 12.3372 1.91862C12.2983 1.89589 12.2704 1.86247 12.2704 1.82173V1.61717C12.2704 1.53562 12.2905 1.46699 12.3163 1.37889C12.323 1.35617 12.33 1.33216 12.3372 1.3063C12.3722 1.18015 12.498 0.960002 12.498 0.960002C12.498 0.960002 12.6877 0.675291 12.7218 0.608864C12.756 0.542436 12.7677 0.502104 12.7683 0.397869C12.7689 0.293633 12.6985 0.270333 12.6161 0.246464C12.5483 0.226853 12.493 0.220985 12.4202 0.213261L12.3699 0.207808C12.2704 0.196533 12.0925 0.196533 12.0925 0.196533L12.0911 3.41113H12.0911ZM11.3764 4.04257C11.5038 3.87334 11.5825 3.83591 11.634 3.8114L11.634 3.81139C11.6421 3.80757 11.6495 3.80406 11.6562 3.80041C11.7066 3.77337 11.7743 3.76738 11.818 3.81392C11.8595 3.85803 11.8772 3.94663 11.8936 4.02898L11.8963 4.04257C11.9135 4.12857 11.9043 4.3725 11.8963 4.46559C11.8883 4.55869 11.839 4.64083 11.8008 4.68783C11.7626 4.73482 11.6921 4.75989 11.5542 4.7644C11.4315 4.7684 11.3959 4.74393 11.3541 4.71523C11.3489 4.71164 11.3436 4.70799 11.338 4.70434C11.2876 4.67129 11.2 4.57242 11.212 4.44918L11.2128 4.44042C11.2242 4.32168 11.2327 4.23352 11.3764 4.04257ZM12.5481 3.8114L12.5482 3.81141C12.5997 3.83592 12.6784 3.87336 12.8057 4.04257C12.9494 4.23352 12.9579 4.32168 12.9693 4.44042L12.9702 4.44918C12.9821 4.57242 12.8945 4.67129 12.8442 4.70434L12.8385 4.70809L12.8281 4.71523H12.8281C12.7863 4.74393 12.7506 4.7684 12.628 4.7644C12.4901 4.75989 12.4196 4.73482 12.3814 4.68783C12.3432 4.64083 12.2938 4.55869 12.2859 4.46559C12.2779 4.3725 12.2686 4.12857 12.2859 4.04257L12.2886 4.02898L12.2886 4.02883C12.305 3.94652 12.3227 3.858 12.3641 3.81392C12.4079 3.76738 12.4755 3.77337 12.5259 3.80041C12.5327 3.80406 12.5401 3.80757 12.5481 3.8114ZM11.3019 5.5394C11.3019 5.5394 11.2126 5.34809 11.2109 5.20925C11.2095 5.0945 11.2507 5.07527 11.274 5.06436L11.274 5.06436C11.2789 5.06208 11.283 5.06015 11.2858 5.05779C11.3018 5.04416 11.4738 4.98147 11.5667 4.96693C11.6595 4.95239 12.0898 4.92555 12.0911 4.9396C12.0923 4.92555 12.5226 4.95239 12.6154 4.96693C12.7084 4.98147 12.8803 5.04416 12.8963 5.05779C12.8991 5.06014 12.9032 5.06206 12.9081 5.06432L12.9081 5.06436C12.9315 5.07526 12.9727 5.09448 12.9713 5.20925C12.9696 5.34809 12.8803 5.5394 12.8803 5.5394C12.8803 5.5394 12.8048 5.69115 12.6154 5.79386C12.4453 5.8861 12.3937 5.89313 12.3087 5.90471L12.3087 5.90471L12.2784 5.90896C12.1735 5.92423 12.0916 5.90906 12.0911 5.90896L12.0911 5.90896C12.0891 5.90932 12.0077 5.9241 11.9038 5.90896L11.8735 5.90471L11.8734 5.90471C11.7884 5.89313 11.7369 5.8861 11.5667 5.79386C11.3773 5.69115 11.3019 5.5394 11.3019 5.5394ZM10.0767 5.87303C10.0767 6.1634 9.86877 6.39879 9.61231 6.39879C9.35585 6.39879 9.14795 6.1634 9.14795 5.87303C9.14795 5.58265 9.35585 5.34726 9.61231 5.34726C9.86877 5.34726 10.0767 5.58265 10.0767 5.87303ZM8.03559 6.75441C8.29205 6.75441 8.49996 6.51902 8.49996 6.22865C8.49996 5.93827 8.29205 5.70288 8.03559 5.70288C7.77913 5.70288 7.57123 5.93827 7.57123 6.22865C7.57123 6.51902 7.77913 6.75441 8.03559 6.75441ZM6.93181 6.92562C6.93181 7.14471 6.77495 7.32232 6.58144 7.32232C6.38794 7.32232 6.23108 7.14471 6.23108 6.92562C6.23108 6.70654 6.38794 6.52893 6.58144 6.52893C6.77495 6.52893 6.93181 6.70654 6.93181 6.92562ZM5.39742 8.0122C5.59092 8.0122 5.74779 7.83459 5.74779 7.61551C5.74779 7.39642 5.59092 7.21881 5.39742 7.21881C5.20392 7.21881 5.04706 7.39642 5.04706 7.61551C5.04706 7.83459 5.20392 8.0122 5.39742 8.0122ZM4.39098 8.52584C4.39098 8.74493 4.23411 8.92254 4.04061 8.92254C3.84711 8.92254 3.69025 8.74493 3.69025 8.52584C3.69025 8.30676 3.84711 8.12915 4.04061 8.12915C4.23411 8.12915 4.39098 8.30676 4.39098 8.52584ZM12.3582 8.54753C12.3582 8.74475 12.2169 8.90463 12.0426 8.90463C11.8684 8.90463 11.7271 8.74475 11.7271 8.54753C11.7271 8.35031 11.8684 8.19043 12.0426 8.19043C12.2169 8.19043 12.3582 8.35031 12.3582 8.54753ZM20.3851 22.5122C20.3851 23.2633 16.6501 23.8723 12.0426 23.8723C7.43524 23.8723 3.7002 23.2633 3.7002 22.5122C3.7002 21.761 7.43524 21.1521 12.0426 21.1521C16.6501 21.1521 20.3851 21.761 20.3851 22.5122ZM12.0427 9.84538C12.1685 9.84538 12.2704 9.72994 12.2704 9.58753C12.2704 9.44513 12.1685 9.32968 12.0427 9.32968C11.9169 9.32968 11.8149 9.44513 11.8149 9.58753C11.8149 9.72994 11.9169 9.84538 12.0427 9.84538ZM2.2869 10.3338C2.2869 10.4762 2.18493 10.5917 2.05916 10.5917C1.93338 10.5917 1.83142 10.4762 1.83142 10.3338C1.83142 10.1914 1.93338 10.076 2.05916 10.076C2.18493 10.076 2.2869 10.1914 2.2869 10.3338ZM2.95595 9.71674C3.11075 9.71674 3.23624 9.57466 3.23624 9.39939C3.23624 9.22412 3.11075 9.08203 2.95595 9.08203C2.80115 9.08203 2.67566 9.22412 2.67566 9.39939C2.67566 9.57466 2.80115 9.71674 2.95595 9.71674ZM22.026 10.6344C21.9003 10.6344 21.7983 10.5189 21.7983 10.3765C21.7983 10.2341 21.9003 10.1187 22.026 10.1187C22.1518 10.1187 22.2538 10.2341 22.2538 10.3765C22.2538 10.5189 22.1518 10.6344 22.026 10.6344ZM20.849 9.44211C20.849 9.61738 20.9745 9.75947 21.1293 9.75947C21.2841 9.75947 21.4095 9.61738 21.4095 9.44211C21.4095 9.26684 21.2841 9.12476 21.1293 9.12476C20.9745 9.12476 20.849 9.26684 20.849 9.44211ZM20.0445 8.96526C19.851 8.96526 19.6942 8.78766 19.6942 8.56857C19.6942 8.34948 19.851 8.17188 20.0445 8.17188C20.238 8.17188 20.3949 8.34948 20.3949 8.56857C20.3949 8.78766 20.238 8.96526 20.0445 8.96526ZM18.3374 7.65823C18.3374 7.87732 18.4943 8.05492 18.6878 8.05492C18.8813 8.05492 19.0381 7.87732 19.0381 7.65823C19.0381 7.43914 18.8813 7.26154 18.6878 7.26154C18.4943 7.26154 18.3374 7.43914 18.3374 7.65823ZM17.5037 7.36504C17.3102 7.36504 17.1533 7.18744 17.1533 6.96835C17.1533 6.74926 17.3102 6.57166 17.5037 6.57166C17.6972 6.57166 17.8541 6.74926 17.8541 6.96835C17.8541 7.18744 17.6972 7.36504 17.5037 7.36504ZM15.5852 6.27137C15.5852 6.56174 15.7931 6.79714 16.0496 6.79714C16.306 6.79714 16.5139 6.56174 16.5139 6.27137C16.5139 5.981 16.306 5.74561 16.0496 5.74561C15.7931 5.74561 15.5852 5.981 15.5852 6.27137ZM14.4729 6.44152C14.2164 6.44152 14.0085 6.20612 14.0085 5.91575C14.0085 5.62538 14.2164 5.38998 14.4729 5.38998C14.7294 5.38998 14.9373 5.62538 14.9373 5.91575C14.9373 6.20612 14.7294 6.44152 14.4729 6.44152ZM12.4455 7.30916C12.4455 7.56112 12.2652 7.76536 12.0426 7.76536C11.8201 7.76536 11.6397 7.56112 11.6397 7.30916C11.6397 7.05721 11.8201 6.85297 12.0426 6.85297C12.2652 6.85297 12.4455 7.05721 12.4455 7.30916ZM11.171 9.57284C11.171 9.74116 11.1626 9.86669 11.0044 9.89743C10.8461 9.92818 10.7085 9.68506 10.7085 9.68506C10.7085 9.68506 10.5488 8.80605 10.4772 8.54421C10.4057 8.28237 10.1719 7.58399 10.1413 7.54065L10.1359 7.5329C10.1054 7.48869 10.0564 7.41776 9.81974 7.34723C9.56872 7.27241 8.46197 7.6527 7.83974 7.94302L7.73501 7.99182C7.10383 8.28571 6.11178 8.74762 5.16589 9.36092C4.16588 10.0093 2.99974 10.9896 2.99974 10.9896C2.99974 10.9896 2.61443 11.2374 2.54281 11.1429C2.4712 11.0484 2.76281 10.6447 2.76281 10.6447C2.76281 10.6447 4.33656 9.37455 5.16589 8.86274C5.99521 8.35094 7.26707 7.74622 7.83974 7.50932C8.41241 7.27241 9.43656 6.95448 9.64578 6.91707C9.7036 6.90673 9.75763 6.8964 9.80822 6.88672L9.80831 6.8867C9.94075 6.86136 10.0496 6.84053 10.1413 6.83601C10.268 6.82978 10.4772 7.24781 10.5929 7.54065C10.7085 7.83347 11.0044 8.74777 11.0044 8.74777C11.0044 8.74777 11.171 9.4045 11.171 9.57284ZM13.081 9.89743C12.9228 9.86669 12.9144 9.74116 12.9144 9.57284C12.9144 9.4045 13.081 8.74777 13.081 8.74777C13.081 8.74777 13.3769 7.83347 13.4925 7.54065C13.6081 7.24781 13.8174 6.82978 13.9441 6.83601C14.0357 6.84053 14.1446 6.86136 14.277 6.8867L14.2771 6.88671L14.2772 6.88673C14.3278 6.8964 14.3818 6.90674 14.4396 6.91707C14.6488 6.95448 15.6729 7.27241 16.2456 7.50932C16.8183 7.74622 18.0902 8.35094 18.9196 8.86274C19.7489 9.37455 21.3225 10.6447 21.3225 10.6447C21.3225 10.6447 21.6142 11.0484 21.5426 11.1429C21.4709 11.2374 21.0857 10.9896 21.0857 10.9896C21.0857 10.9896 19.9195 10.0093 18.9196 9.36092C17.9735 8.74761 16.9815 8.28569 16.3503 7.9918L16.2456 7.94302C15.6234 7.6527 14.5166 7.27241 14.2656 7.34723C14.029 7.41776 13.98 7.48869 13.9495 7.5329L13.9441 7.54065C13.9134 7.58399 13.6797 8.28237 13.6081 8.54421C13.5365 8.80605 13.3769 9.68506 13.3769 9.68506C13.3769 9.68506 13.2392 9.92818 13.081 9.89743ZM13.5732 20.4859C13.7716 20.4952 15.8219 20.6598 15.9409 20.6711C16.06 20.6824 17.8407 20.9558 18.2144 21.0512C18.5881 21.1466 19.3619 21.3675 19.6115 21.4463C19.8613 21.5248 20.3292 21.7158 20.4944 21.8299L20.5119 21.8422L20.5296 21.8543C20.685 21.9626 20.8532 22.0796 21.0483 22.0639C21.2584 22.0471 21.546 21.6428 21.546 21.6428L22.2554 20.6955C22.2554 20.6955 22.4241 20.424 22.4638 20.3492C22.5034 20.2742 22.573 20.0608 22.5381 19.8325C22.5278 19.7639 22.5081 19.6742 22.4862 19.5742C22.4351 19.3413 22.3718 19.0524 22.3845 18.844C22.4092 18.4303 22.4538 18.2524 22.4538 18.2524L22.7217 17.2565C22.7217 17.2565 22.8755 16.7959 22.9944 16.4796C23.1136 16.1632 23.393 15.6109 23.4872 15.4986C23.5473 15.4269 23.6411 15.3011 23.7179 15.1981L23.7213 15.1936L23.7215 15.1934L23.7218 15.193L23.7222 15.1925L23.7229 15.1915C23.7644 15.1358 23.8005 15.0874 23.8229 15.0587C23.8873 14.9763 23.9303 14.8134 23.9436 14.6824C23.9564 14.5557 23.9105 14.4028 23.8789 14.2981L23.8758 14.2874C23.8525 14.2098 23.8437 14.1497 23.8267 14.0327V14.0327V14.0324L23.8266 14.0317C23.8206 13.9907 23.8136 13.9428 23.8047 13.8849C23.77 13.6602 23.8229 13.2914 23.8229 13.2914L23.9254 12.7073C23.9254 12.7073 23.9816 12.4153 23.9618 12.2917C23.942 12.1682 23.8248 12.127 23.6509 12.0727C23.4771 12.0184 22.9184 11.9417 22.7779 11.9267C22.7463 11.9233 22.7158 11.9187 22.6874 11.9144L22.6863 11.9142C22.5892 11.8994 22.5155 11.8882 22.4952 11.9417C22.4745 11.9959 22.4792 12.0198 22.4876 12.0621L22.4878 12.0622L22.4885 12.0659C22.4906 12.0767 22.493 12.0887 22.4952 12.1027C22.5064 12.1745 22.7399 12.9414 22.7928 13.0836L22.7933 13.085L22.7935 13.0854C22.8466 13.2284 22.9578 13.5276 22.8755 13.5872C22.7928 13.6471 22.5563 13.4468 22.5563 13.4468C22.5563 13.4468 21.933 12.8459 21.8221 12.8945C21.7114 12.9432 21.3775 14.281 21.3775 14.281L21.2368 14.9752C21.2368 14.9752 21.1708 15.3526 21.2039 15.508C21.2162 15.5658 21.2186 15.5917 21.2195 15.6019C21.2198 15.6059 21.22 15.6074 21.2205 15.6075C21.2207 15.6076 21.2209 15.6073 21.2213 15.6067C21.2215 15.6066 21.2216 15.6064 21.2218 15.6062C21.2244 15.6026 21.2312 15.5931 21.2517 15.5959C21.3046 15.6034 21.404 15.508 21.404 15.508L22.0868 14.9752C22.0868 14.9752 22.2091 14.8918 22.3182 14.876C22.4274 14.8602 22.4869 14.8921 22.5332 14.9538C22.5794 15.0156 22.5794 15.1654 22.5596 15.3526C22.5398 15.5398 22.4125 15.873 22.4125 15.873C22.4125 15.873 22.2504 16.2306 22.1546 16.4628C22.0669 16.6752 21.892 16.8937 21.7591 17.0598V17.0598V17.0598L21.7589 17.0599L21.7428 17.0802L21.723 17.1049C21.6051 17.2529 21.3949 17.3812 21.2029 17.4983L21.2027 17.4984C21.1952 17.503 21.1878 17.5075 21.1803 17.5121C21.1592 17.525 21.1382 17.5377 21.1179 17.5504C20.9063 17.6814 20.1836 17.8106 19.9704 17.8125C19.7571 17.8144 19.5321 17.7994 19.2709 17.6515C19.1033 17.5566 18.9845 17.457 18.8887 17.3766V17.3765V17.3765L18.8876 17.3755C18.8346 17.3311 18.7887 17.2926 18.7452 17.264C18.6228 17.1835 18.4194 16.8952 18.2706 16.663C18.1217 16.4309 17.9812 15.9835 17.9565 15.6727C17.9317 15.3619 17.9846 15.1223 17.9979 15.0774L17.9991 15.0725L18.0003 15.068L18.0007 15.0663L18.0028 15.0577L18.0028 15.0577C18.0156 15.0029 18.0419 14.8902 18.2144 14.6768C18.4111 14.4334 18.5749 14.3959 18.5749 14.3959C18.5749 14.3959 18.6625 14.351 18.8146 14.3248C18.9666 14.2986 19.0973 14.3248 19.0973 14.3248C19.0973 14.3248 19.2429 14.3379 19.395 14.4334C19.547 14.5289 19.6199 14.6131 19.6199 14.6131C19.6199 14.6131 19.7206 14.6992 19.8116 14.8883C19.8929 15.0571 19.9147 15.1618 19.9325 15.2476L19.9326 15.2479L19.9389 15.2777C19.9454 15.3073 19.9489 15.3705 19.9529 15.4463L19.953 15.4469C19.9617 15.6056 19.9735 15.8189 20.0216 15.8936C20.0927 16.0041 20.1952 15.9554 20.3043 15.8936C20.4003 15.8393 20.5117 15.6283 20.5562 15.544L20.5563 15.544C20.5624 15.5325 20.5671 15.5234 20.5706 15.5173C20.5986 15.4668 20.6533 15.3414 20.6996 15.2234C20.7274 15.1524 20.748 15.0649 20.7652 14.9922L20.7659 14.9892C20.7768 14.9424 20.7864 14.9019 20.7954 14.876C20.8162 14.8163 20.829 14.4519 20.8337 14.3167L20.8351 14.281C20.8385 14.1941 20.792 13.8999 20.7227 13.6883C20.6533 13.4768 20.554 13.3045 20.3904 13.063C20.249 12.8546 20.1078 12.7926 20.0312 12.759V12.759C20.0191 12.7537 20.0086 12.7491 20 12.7448C19.9373 12.713 19.8762 12.7092 19.6231 12.7111C19.3701 12.713 19.0989 12.7448 19.0989 12.7448L18.4309 12.7934C18.4309 12.7934 18.5252 11.4137 18.5418 11.1123C18.5583 10.8109 18.4789 9.97037 18.4707 9.91608C18.4625 9.86179 18.3087 9.40873 18.1746 9.40123C18.0408 9.39375 17.7796 9.68955 17.6887 9.81496C17.5976 9.94038 17.3877 10.3223 17.3034 10.4758C17.2461 10.5801 17.1926 10.7732 17.1456 10.9434L17.1455 10.9438C17.1233 11.024 17.1025 11.0991 17.0835 11.1572C17.0239 11.3388 16.9881 11.7836 16.9897 11.9944C16.9912 12.2052 16.9897 12.2795 16.9652 12.3658C16.9455 12.4356 16.9427 12.4366 16.9119 12.4481L16.9119 12.4481C16.9045 12.4508 16.8955 12.4542 16.8844 12.4591C16.8264 12.4851 16.5105 12.2708 16.422 12.2103C16.3335 12.1499 16.2648 12.1073 16.1397 12.0445C16.0146 11.9817 15.7689 12.0186 15.7689 12.0186C15.7689 12.0186 15.4362 12.0808 15.2424 12.2103C15.0486 12.3399 14.9906 12.3797 14.8868 12.4959C14.7831 12.6121 14.6457 12.8082 14.5725 13.0967C14.4992 13.3853 14.5465 13.6859 14.5938 13.8811C14.6411 14.0764 14.7586 14.3321 14.8395 14.4807C14.9204 14.6293 15.1859 15.1182 15.1859 15.1182C15.1859 15.1182 15.3004 14.6396 15.3324 14.5135C15.3645 14.3874 15.4894 14.1294 15.5262 14.0867L15.5368 14.0744C15.6077 13.9918 15.7339 13.8449 15.9428 13.7792C16.1413 13.7168 16.2875 13.7615 16.3926 13.7936H16.3927L16.3976 13.7951C16.4071 13.798 16.4162 13.8008 16.425 13.8034C16.5319 13.8345 16.7119 13.9934 16.7836 14.0867C16.8554 14.18 17.008 14.4358 17.0583 14.7105C17.1087 14.9852 17.0828 15.177 17.0248 15.4603C16.9852 15.6538 16.9562 15.6926 16.9278 15.7308C16.9146 15.7485 16.9015 15.7661 16.8874 15.799C16.862 15.8585 16.8225 15.909 16.7683 15.9781L16.7682 15.9782H16.7682L16.7682 15.9782C16.728 16.0294 16.6799 16.0909 16.6234 16.1739C16.4907 16.3691 16.1168 16.5851 16.1168 16.5851C16.1168 16.5851 15.7505 16.7838 15.424 16.8529C15.0974 16.9221 14.719 16.884 14.719 16.884C14.719 16.884 14.632 16.8996 14.1925 16.7527C13.753 16.6059 13.5455 16.3778 13.5455 16.3778C13.5455 16.3778 13.4005 16.2707 13.2174 16.0633C13.0752 15.9023 13.0443 15.8528 12.974 15.74L12.974 15.74C12.9538 15.7075 12.9303 15.6698 12.9 15.6227C12.7641 15.412 12.5915 14.9848 12.5215 14.6776C12.4516 14.3705 12.4605 14.2647 12.5047 14.161C12.549 14.0574 12.7214 14.0815 12.8801 14.1852C13.0388 14.2889 13.8369 14.9023 13.8369 14.9023C13.8369 14.9023 13.8605 12.9711 13.8275 12.5029C13.798 12.0845 13.7344 12.0612 13.6824 12.0421C13.6763 12.0398 13.6703 12.0376 13.6645 12.0348C13.6101 12.0084 13.4393 12.1425 13.4393 12.1425C13.4393 12.1425 13.0569 12.481 13.0259 12.5425C12.9948 12.604 12.6987 12.826 12.6493 12.7689C12.5999 12.7117 12.6987 12.2975 12.6987 12.2975L13.0367 11.3073C13.0367 11.3073 13.1388 10.9974 13.1243 10.8332C13.1103 10.6747 13.0203 10.6301 12.9786 10.6095C12.9723 10.6064 12.9672 10.6038 12.9635 10.6015C12.9354 10.5837 12.8006 10.5511 12.8006 10.5511L12.624 10.5265L12.4409 10.5124H12.1729L11.6444 10.5124L11.4612 10.5265L11.2847 10.5511C11.2847 10.5511 11.1498 10.5837 11.1218 10.6015C11.1181 10.6038 11.113 10.6064 11.1067 10.6095C11.065 10.6302 10.9749 10.6747 10.961 10.8332C10.9465 10.9974 11.0486 11.3073 11.0486 11.3073L11.3866 12.2975C11.3866 12.2975 11.4854 12.7118 11.436 12.7689C11.3866 12.8261 11.0905 12.6041 11.0594 12.5425C11.0284 12.481 10.646 12.1425 10.646 12.1425C10.646 12.1425 10.4751 12.0085 10.4208 12.0348C10.415 12.0376 10.409 12.0398 10.4028 12.0421C10.3508 12.0612 10.2872 12.0845 10.2577 12.503C10.2247 12.9711 10.2483 14.9023 10.2483 14.9023C10.2483 14.9023 11.0465 14.2889 11.2052 14.1852C11.3639 14.0816 11.5363 14.0574 11.5806 14.161C11.6248 14.2647 11.6337 14.3705 11.5638 14.6777C11.4938 14.9848 11.3211 15.412 11.1853 15.6228C11.155 15.6699 11.1315 15.7075 11.1113 15.74L11.1112 15.74L11.1112 15.7402C11.0409 15.8529 11.0101 15.9024 10.8679 16.0634C10.6848 16.2707 10.5398 16.3778 10.5398 16.3778C10.5398 16.3778 10.3323 16.6059 9.89277 16.7528C9.45329 16.8996 9.36631 16.8841 9.36631 16.8841C9.36631 16.8841 8.98785 16.9221 8.66129 16.853C8.33472 16.7839 7.96848 16.5851 7.96848 16.5851C7.96848 16.5851 7.59461 16.3692 7.46185 16.1739C7.40551 16.0911 7.35741 16.0297 7.31734 15.9786L7.31705 15.9782C7.26281 15.909 7.22327 15.8586 7.19785 15.799C7.18386 15.7662 7.17078 15.7487 7.15761 15.731L7.15749 15.7308C7.12902 15.6927 7.1001 15.6539 7.06051 15.4604C7.00251 15.177 6.97658 14.9852 7.02693 14.7105C7.07729 14.4358 7.22989 14.1801 7.30161 14.0868C7.37333 13.9935 7.5534 13.8345 7.66023 13.8034L7.69262 13.7936C7.79777 13.7615 7.94397 13.7168 8.14246 13.7792C8.35138 13.8449 8.47754 13.9919 8.54848 14.0745L8.55904 14.0868C8.59588 14.1294 8.7208 14.3874 8.75284 14.5135C8.7849 14.6397 8.89935 15.1182 8.89935 15.1182C8.89935 15.1182 9.16487 14.6293 9.24575 14.4807C9.32664 14.3321 9.44413 14.0764 9.49145 13.8812C9.53875 13.6859 9.58605 13.3853 9.5128 13.0967C9.43956 12.8082 9.30222 12.6121 9.19845 12.4959C9.09468 12.3797 9.03669 12.34 8.84289 12.2104C8.64908 12.0808 8.31641 12.0186 8.31641 12.0186C8.31641 12.0186 8.07066 11.9817 7.94558 12.0445C7.82052 12.1073 7.75178 12.1499 7.66328 12.2104C7.57478 12.2708 7.25889 12.4851 7.2009 12.4592C7.18973 12.4542 7.18077 12.4509 7.17342 12.4481C7.14253 12.4367 7.13973 12.4356 7.12002 12.3659C7.0956 12.2795 7.09408 12.2052 7.0956 11.9944C7.09712 11.7836 7.06133 11.3389 7.00181 11.1573C6.98275 11.0991 6.96199 11.0241 6.93981 10.9439L6.93979 10.9438C6.89272 10.7736 6.83922 10.5802 6.7819 10.4758C6.69759 10.3223 6.48759 9.9404 6.39666 9.81498C6.30572 9.68959 6.04447 9.39377 5.91054 9.40127C5.77662 9.40875 5.62284 9.86181 5.61457 9.9161C5.6063 9.97039 5.52695 10.811 5.54348 11.1124C5.56002 11.4138 5.65427 12.7934 5.65427 12.7934L4.98628 12.7448C4.98628 12.7448 4.71511 12.713 4.46213 12.7111C4.20915 12.7092 4.14798 12.713 4.08514 12.7448C4.0767 12.7491 4.06643 12.7536 4.05457 12.7588L4.05396 12.7591L4.0539 12.7591C3.97747 12.7926 3.8362 12.8546 3.69494 13.0631C3.53125 13.3046 3.43204 13.4768 3.3626 13.6883C3.29314 13.8999 3.24686 14.1941 3.25015 14.281L3.25145 14.3167C3.25619 14.452 3.269 14.8163 3.28985 14.876C3.29883 14.9018 3.30832 14.9422 3.31929 14.9889L3.31937 14.9892L3.31943 14.9895C3.33665 15.0628 3.3575 15.1515 3.38574 15.2234C3.43204 15.3414 3.48659 15.4668 3.51471 15.5174C3.51796 15.5232 3.52258 15.5319 3.52836 15.5429L3.52895 15.544C3.57343 15.6283 3.68487 15.8393 3.78092 15.8936C3.89004 15.9554 3.99256 16.0041 4.06365 15.8936C4.11177 15.8189 4.12353 15.6052 4.13227 15.4465L4.13228 15.4463V15.4463V15.4463V15.4463C4.13643 15.3705 4.13992 15.3074 4.14633 15.2777L4.1526 15.248V15.248C4.17049 15.1621 4.19232 15.0574 4.27364 14.8883C4.36457 14.6993 4.46544 14.6131 4.46544 14.6131C4.46544 14.6131 4.5382 14.5289 4.69031 14.4334C4.84242 14.338 4.98793 14.3248 4.98793 14.3248C4.98793 14.3248 5.11854 14.2986 5.27067 14.3248C5.42278 14.351 5.51041 14.396 5.51041 14.396C5.51041 14.396 5.6741 14.4334 5.87086 14.6768C6.04345 14.8903 6.06975 15.0029 6.08252 15.0577C6.08431 15.0654 6.08583 15.0719 6.08746 15.0774C6.10069 15.1224 6.15361 15.362 6.1288 15.6727C6.104 15.9835 5.96345 16.4309 5.81465 16.6631C5.66583 16.8952 5.46246 17.1835 5.34011 17.264C5.29641 17.2928 5.2502 17.3315 5.19693 17.3762L5.19652 17.3766C5.10069 17.457 4.98204 17.5566 4.81432 17.6515C4.55307 17.7994 4.32821 17.8144 4.1149 17.8125C3.90162 17.8107 3.17906 17.6815 2.96742 17.5504C2.94148 17.5344 2.91484 17.5181 2.88783 17.5016L2.88395 17.4993L2.88376 17.4991L2.88365 17.4991L2.88339 17.4989L2.88276 17.4986L2.88258 17.4984C2.69055 17.3813 2.48015 17.253 2.36226 17.1049L2.32638 17.06L2.32631 17.0599L2.32626 17.0598C2.1933 16.8937 2.01843 16.6752 1.93071 16.4628C1.83482 16.2306 1.67278 15.8731 1.67278 15.8731C1.67278 15.8731 1.54546 15.5398 1.52562 15.3526C1.50578 15.1654 1.50578 15.0156 1.55208 14.9539C1.59837 14.8921 1.6579 14.8603 1.76702 14.876C1.87614 14.8919 1.99851 14.9752 1.99851 14.9752L2.68137 15.508C2.68137 15.508 2.78057 15.6035 2.8335 15.596C2.85403 15.5931 2.86086 15.6026 2.86347 15.6062C2.8641 15.6071 2.86449 15.6076 2.86477 15.6076C2.86518 15.6075 2.86532 15.606 2.86568 15.6022L2.86571 15.6019C2.86668 15.5917 2.86915 15.5658 2.88144 15.508C2.91452 15.3526 2.84837 14.9752 2.84837 14.9752L2.70784 14.281C2.70784 14.281 2.37384 12.9433 2.26305 12.8946C2.15228 12.8459 1.52893 13.4468 1.52893 13.4468C1.52893 13.4468 1.29249 13.6472 1.20981 13.5872C1.12742 13.5275 1.23883 13.2279 1.29195 13.0851L1.29196 13.0851L1.29249 13.0837C1.3454 12.9414 1.57883 12.1746 1.59011 12.1027C1.59256 12.0871 1.59519 12.0739 1.59755 12.0621C1.60601 12.0199 1.61081 11.9959 1.59011 11.9417C1.56969 11.8882 1.49612 11.8994 1.39901 11.9142H1.399L1.39765 11.9144C1.3693 11.9187 1.33896 11.9233 1.30737 11.9267C1.16682 11.9417 0.608233 12.0184 0.43435 12.0727C0.260469 12.127 0.143346 12.1682 0.123504 12.2918C0.103662 12.4153 0.159879 12.7074 0.159879 12.7074L0.262393 13.2915C0.262393 13.2915 0.315303 13.6603 0.28058 13.8849C0.271602 13.943 0.264614 13.9909 0.258643 14.0319L0.258535 14.0327C0.241488 14.1497 0.232725 14.2098 0.209482 14.2874L0.206268 14.2981L0.206251 14.2982C0.174799 14.4029 0.128909 14.5558 0.141691 14.6824C0.154919 14.8135 0.197908 14.9763 0.262393 15.0587C0.285105 15.0877 0.321764 15.1369 0.363844 15.1934L0.363867 15.1934C0.441263 15.2974 0.536995 15.4259 0.59804 15.4986C0.692287 15.611 0.971719 16.1632 1.09077 16.4796C1.20981 16.796 1.36358 17.2565 1.36358 17.2565L1.63144 18.2525C1.63144 18.2525 1.67608 18.4303 1.70089 18.844C1.71338 19.0524 1.65011 19.3413 1.59909 19.5742L1.59908 19.5743L1.59908 19.5743C1.57718 19.6742 1.55754 19.7639 1.54712 19.8325C1.51239 20.0608 1.58184 20.2742 1.62152 20.3492C1.6612 20.424 1.82986 20.6955 1.82986 20.6955L2.53917 21.6428C2.53917 21.6428 2.82688 22.0471 3.03687 22.0639C3.23209 22.0796 3.40018 21.9626 3.5557 21.8543L3.59078 21.8301C3.75611 21.7158 4.22404 21.5248 4.47371 21.4463C4.72338 21.3675 5.49718 21.1468 5.87086 21.0512C6.24455 20.9558 8.02529 20.6824 8.14435 20.6711C8.26338 20.66 10.3136 20.4952 10.5121 20.4859C10.7105 20.4766 12.1729 20.4484 12.1729 20.4484C12.1729 20.4484 13.3748 20.4766 13.5732 20.4859ZM10.3358 19.4381C10.3358 19.7667 10.1005 20.0331 9.81021 20.0331C9.51995 20.0331 9.28466 19.7667 9.28466 19.4381C9.28466 19.1094 9.51995 18.843 9.81021 18.843C10.1005 18.843 10.3358 19.1094 10.3358 19.4381ZM14.8905 19.4381C14.8905 19.7667 14.6552 20.0331 14.365 20.0331C14.0747 20.0331 13.8394 19.7667 13.8394 19.4381C13.8394 19.1094 14.0747 18.843 14.365 18.843C14.6552 18.843 14.8905 19.1094 14.8905 19.4381ZM12.9624 18.1499L12.087 16.6612L11.2117 18.1499L12.087 19.6386L12.9624 18.1499ZM10.1606 17.8513C10.1606 18.1799 9.92529 18.4463 9.63503 18.4463C9.34477 18.4463 9.10948 18.1799 9.10948 17.8513C9.10948 17.5227 9.34477 17.2562 9.63503 17.2562C9.92529 17.2562 10.1606 17.5227 10.1606 17.8513ZM4.53056 21.3564C4.74229 21.3142 4.87514 21.0309 4.82732 20.7237C4.77949 20.4167 4.56908 20.2018 4.35736 20.2441C4.14563 20.2865 4.01277 20.5698 4.0606 20.8768C4.10842 21.1839 4.31883 21.3987 4.53056 21.3564ZM3.60348 18.7191C3.54835 19.0732 3.69424 19.3982 3.92935 19.4452C4.16446 19.4921 4.39975 19.2432 4.4549 18.8891C4.51003 18.535 4.36414 18.2099 4.12902 18.163C3.89391 18.116 3.65862 18.365 3.60348 18.7191ZM2.41534 20.8671C2.21444 20.9498 1.94525 20.6862 1.81411 20.2782C1.68295 19.8702 1.73949 19.4724 1.94038 19.3896C2.14128 19.3068 2.41045 19.5704 2.54161 19.9785C2.67277 20.3865 2.61622 20.7842 2.41534 20.8671ZM0.488856 14.7279C0.548585 15.1549 0.744129 15.4747 0.925614 15.4421C1.1071 15.4096 1.2058 15.0371 1.14607 14.6101C1.08634 14.1831 0.8908 13.8633 0.709315 13.8959C0.527829 13.9284 0.429126 14.301 0.488856 14.7279ZM23.256 15.4067C23.4392 15.4248 23.6127 15.1143 23.6437 14.7132C23.6747 14.312 23.5513 13.9721 23.3683 13.954C23.1852 13.9358 23.0116 14.2463 22.9806 14.6475C22.9496 15.0487 23.0729 15.3886 23.256 15.4067ZM22.162 20.2782C22.0309 20.6862 21.7617 20.9498 21.5607 20.8671C21.36 20.7842 21.3034 20.3865 21.4346 19.9785C21.5657 19.5704 21.8349 19.3068 22.0358 19.3896C22.2366 19.4724 22.2932 19.8702 22.162 20.2782ZM14.5401 18.4463C14.8304 18.4463 15.0657 18.1799 15.0657 17.8513C15.0657 17.5227 14.8304 17.2562 14.5401 17.2562C14.2499 17.2562 14.0146 17.5227 14.0146 17.8513C14.0146 18.1799 14.2499 18.4463 14.5401 18.4463ZM8.38507 18.4531C8.49296 19.1459 7.99297 19.8248 7.26831 19.9696C6.54365 20.1142 5.86873 19.6698 5.76083 18.977C5.65294 18.2842 6.15293 17.6053 6.87758 17.4606C7.60224 17.3159 8.27717 17.7603 8.38507 18.4531ZM16.9033 20.0271C16.1787 19.8825 15.6787 19.2035 15.7866 18.5107C15.8945 17.8179 16.5694 17.3735 17.2941 17.5182C18.0187 17.6629 18.5187 18.3418 18.4108 19.0346C18.3029 19.7274 17.6281 20.1717 16.9033 20.0271ZM20.4963 18.8041C20.5515 19.1582 20.4056 19.4832 20.1705 19.5302C19.9354 19.5771 19.7001 19.3281 19.645 18.9741C19.5898 18.62 19.7357 18.2949 19.9708 18.248C20.2059 18.201 20.4412 18.45 20.4963 18.8041ZM19.5328 21.0319C19.321 20.9895 19.1883 20.7062 19.2361 20.3992C19.2839 20.0922 19.4943 19.8774 19.7061 19.9196C19.9177 19.9618 20.0507 20.2451 20.0029 20.5523C19.955 20.8594 19.7446 21.0742 19.5328 21.0319ZM12.5682 13.4255C12.5682 13.7541 12.3329 14.0205 12.0426 14.0205C11.7524 14.0205 11.5171 13.7541 11.5171 13.4255C11.5171 13.0968 11.7524 12.8304 12.0426 12.8304C12.3329 12.8304 12.5682 13.0968 12.5682 13.4255Z" fill="#141301"/>
</svg>
